# xmcd
#
# Track frame offsets: 
#        150
#        18152
#        42376
#        68116
#        89759
#        113016
#        133639
#        157194
#        182670
#        200308
#        232966
#        255333
#        280609
#
# Disc length: 3918 seconds
#
# Revision: 0
# Processed by: cddbd v1.5.2PL0 Copyright (c) Steve Scherf et al.
# Submitted via: ExactAudioCopy v0.95b4
#
DISCID=aa0f4c0d
DTITLE=Tom Rigney - Tom Rigney and Flambeau
DYEAR=2007
DGENRE=Zydeco
TTITLE0=Hounded
TTITLE1=Drivin' That Thing
TTITLE2=Maman Rosin
TTITLE3=Mazatlan
TTITLE4=Guinness and Gumbo
TTITLE5=Moonlight on the Bayou
TTITLE6=Party Gras
TTITLE7=The Eyes of Love
TTITLE8=Swanee River Boogie
TTITLE9=House of the Rising Sun
TTITLE10=My Babe
TTITLE11=Jambalaya
TTITLE12=O Mio Babbino Caro
EXTD=
EXTT0=
EXTT1=
EXTT2=
EXTT3=
EXTT4=
EXTT5=
EXTT6=
EXTT7=
EXTT8=
EXTT9=
EXTT10=
EXTT11=
EXTT12=
PLAYORDER=
